<?xml version="1.0" encoding="UTF-8"?>
<svg xmlns="http://www.w3.org/2000/svg" xmlns:xlink="http://www.w3.org/1999/xlink" width="225.813pt" height="30.0396pt" viewBox="0 0 225.813 30.0396" version="1.1">
<defs>
<clipPath id="clip1">
  <path d="M 25 3 L 38 3 L 38 30.039062 L 25 30.039062 Z M 25 3 "/>
</clipPath>
<clipPath id="clip2">
  <path d="M 45 3 L 58 3 L 58 30.039062 L 45 30.039062 Z M 45 3 "/>
</clipPath>
<clipPath id="clip3">
  <path d="M 73 3 L 79 3 L 79 30.039062 L 73 30.039062 Z M 73 3 "/>
</clipPath>
<clipPath id="clip4">
  <path d="M 65 17 L 71 17 L 71 30.039062 L 65 30.039062 Z M 65 17 "/>
</clipPath>
<clipPath id="clip5">
  <path d="M 85 3 L 98 3 L 98 30.039062 L 85 30.039062 Z M 85 3 "/>
</clipPath>
<clipPath id="clip6">
  <path d="M 105 3 L 118 3 L 118 30.039062 L 105 30.039062 Z M 105 3 "/>
</clipPath>
<clipPath id="clip7">
  <path d="M 125 3 L 131 3 L 131 30.039062 L 125 30.039062 Z M 125 3 "/>
</clipPath>
<clipPath id="clip8">
  <path d="M 145 3 L 151 3 L 151 30.039062 L 145 30.039062 Z M 145 3 "/>
</clipPath>
<clipPath id="clip9">
  <path d="M 138 17 L 143 17 L 143 30.039062 L 138 30.039062 Z M 138 17 "/>
</clipPath>
<clipPath id="clip10">
  <path d="M 158 14 L 171 14 L 171 30.039062 L 158 30.039062 Z M 158 14 "/>
</clipPath>
<clipPath id="clip11">
  <path d="M 178 17 L 183 17 L 183 30.039062 L 178 30.039062 Z M 178 17 "/>
</clipPath>
<clipPath id="clip12">
  <path d="M 185 3 L 192 3 L 192 30.039062 L 185 30.039062 Z M 185 3 "/>
</clipPath>
<clipPath id="clip13">
  <path d="M 198 3 L 204 3 L 204 30.039062 L 198 30.039062 Z M 198 3 "/>
</clipPath>
<clipPath id="clip14">
  <path d="M 221 15 L 225.8125 15 L 225.8125 21 L 221 21 Z M 221 15 "/>
</clipPath>
</defs>
<g id="surface1">
<path style=" stroke:none;fill-rule:nonzero;fill:rgb(100%,100%,100%);fill-opacity:1;" d="M 0 13.171875 L 3.492188 16.667969 L 6.988281 13.171875 L 3.492188 9.679688 Z M 0 13.171875 "/>
<path style=" stroke:none;fill-rule:nonzero;fill:rgb(100%,100%,100%);fill-opacity:1;" d="M 222.113281 13.183594 L 218.621094 16.675781 L 215.125 13.183594 L 218.621094 9.6875 Z M 222.113281 13.183594 "/>
<path style=" stroke:none;fill-rule:nonzero;fill:rgb(38.822937%,39.215088%,39.99939%);fill-opacity:1;" d="M 28.601562 13.296875 L 29.875 13.296875 L 29.875 8.207031 L 31.878906 8.207031 L 31.878906 6.9375 L 28.601562 6.9375 Z M 28.601562 13.296875 "/>
<g clip-path="url(#clip1)" clip-rule="nonzero">
<path style=" stroke:none;fill-rule:nonzero;fill:rgb(38.822937%,39.215088%,39.99939%);fill-opacity:1;" d="M 37.707031 14.230469 L 37.707031 6.476562 C 37.707031 5.382812 37.054688 4.445312 36.140625 3.992188 C 36.320312 4.359375 36.433594 4.765625 36.433594 5.203125 L 36.433594 12.957031 C 36.433594 13.820312 36.058594 14.574219 35.417969 15.101562 C 35.980469 15.707031 36.433594 16.382812 36.433594 17.363281 L 36.433594 25.980469 C 36.433594 27.484375 35.152344 28.765625 33.644531 28.765625 L 25.359375 28.765625 L 25.359375 30.039062 L 34.921875 30.039062 C 36.425781 30.039062 37.707031 28.761719 37.707031 27.253906 L 37.707031 18.636719 C 37.707031 17.65625 37.253906 16.980469 36.6875 16.375 C 37.328125 15.851562 37.707031 15.097656 37.707031 14.230469 "/>
</g>
<path style=" stroke:none;fill-rule:nonzero;fill:rgb(38.822937%,39.215088%,39.99939%);fill-opacity:1;" d="M 28.601562 24.210938 L 29.875 24.210938 L 29.875 19.085938 L 31.878906 19.085938 L 31.878906 17.8125 L 28.601562 17.8125 Z M 28.601562 24.210938 "/>
<path style=" stroke:none;fill-rule:nonzero;fill:rgb(38.822937%,39.215088%,39.99939%);fill-opacity:1;" d="M 48.777344 24.210938 L 50.050781 24.210938 L 50.050781 8.210938 L 52.054688 8.210938 L 52.054688 6.9375 L 48.777344 6.9375 Z M 48.777344 24.210938 "/>
<g clip-path="url(#clip2)" clip-rule="nonzero">
<path style=" stroke:none;fill-rule:nonzero;fill:rgb(38.822937%,39.215088%,39.99939%);fill-opacity:1;" d="M 56.3125 3.992188 C 56.496094 4.359375 56.609375 4.765625 56.609375 5.203125 L 56.609375 25.980469 C 56.609375 27.484375 55.328125 28.765625 53.824219 28.765625 L 47.046875 28.765625 C 46.609375 28.765625 46.203125 28.65625 45.835938 28.472656 C 46.289062 29.386719 47.222656 30.039062 48.320312 30.039062 L 55.09375 30.039062 C 56.601562 30.039062 57.878906 28.761719 57.878906 27.253906 L 57.878906 6.476562 C 57.878906 5.382812 57.226562 4.445312 56.3125 3.992188 "/>
</g>
<path style=" stroke:none;fill-rule:nonzero;fill:rgb(38.822937%,39.215088%,39.99939%);fill-opacity:1;" d="M 68.953125 13.296875 L 70.226562 13.296875 L 70.226562 8.207031 L 72.226562 8.207031 L 72.226562 6.9375 L 68.953125 6.9375 Z M 68.953125 13.296875 "/>
<g clip-path="url(#clip3)" clip-rule="nonzero">
<path style=" stroke:none;fill-rule:nonzero;fill:rgb(38.822937%,39.215088%,39.99939%);fill-opacity:1;" d="M 76.4375 18.824219 C 77.417969 18.371094 78.019531 17.394531 78.019531 16.339844 L 78.019531 6.476562 C 78.019531 5.367188 77.371094 4.421875 76.453125 3.972656 C 76.632812 4.347656 76.746094 4.761719 76.746094 5.203125 L 76.746094 15.066406 C 76.746094 16.121094 76.140625 17.097656 75.164062 17.550781 L 77.046875 28.765625 L 73.589844 28.765625 L 73.800781 30.039062 L 78.320312 30.039062 Z M 76.4375 18.824219 "/>
</g>
<g clip-path="url(#clip4)" clip-rule="nonzero">
<path style=" stroke:none;fill-rule:nonzero;fill:rgb(38.822937%,39.215088%,39.99939%);fill-opacity:1;" d="M 70.683594 17.8125 L 68.953125 17.8125 L 68.953125 28.765625 L 65.710938 28.765625 L 65.710938 30.039062 L 70.226562 30.039062 L 70.226562 19.085938 L 70.898438 19.085938 Z M 70.683594 17.8125 "/>
</g>
<path style=" stroke:none;fill-rule:nonzero;fill:rgb(38.822937%,39.215088%,39.99939%);fill-opacity:1;" d="M 88.527344 24.210938 L 89.800781 24.210938 L 89.800781 8.210938 L 91.804688 8.210938 L 91.804688 6.9375 L 88.527344 6.9375 Z M 88.527344 24.210938 "/>
<g clip-path="url(#clip5)" clip-rule="nonzero">
<path style=" stroke:none;fill-rule:nonzero;fill:rgb(38.822937%,39.215088%,39.99939%);fill-opacity:1;" d="M 96.0625 3.992188 C 96.246094 4.359375 96.355469 4.765625 96.355469 5.203125 L 96.355469 25.980469 C 96.355469 27.484375 95.078125 28.765625 93.570312 28.765625 L 86.796875 28.765625 C 86.359375 28.765625 85.949219 28.65625 85.582031 28.472656 C 86.039062 29.386719 86.972656 30.039062 88.070312 30.039062 L 94.84375 30.039062 C 96.347656 30.039062 97.628906 28.761719 97.628906 27.253906 L 97.628906 6.476562 C 97.628906 5.382812 96.976562 4.445312 96.0625 3.992188 "/>
</g>
<path style=" stroke:none;fill-rule:nonzero;fill:rgb(38.822937%,39.215088%,39.99939%);fill-opacity:1;" d="M 108.703125 24.210938 L 109.976562 24.210938 L 109.976562 8.210938 L 111.976562 8.210938 L 111.976562 6.9375 L 108.703125 6.9375 Z M 108.703125 24.210938 "/>
<g clip-path="url(#clip6)" clip-rule="nonzero">
<path style=" stroke:none;fill-rule:nonzero;fill:rgb(38.822937%,39.215088%,39.99939%);fill-opacity:1;" d="M 116.238281 3.992188 C 116.421875 4.359375 116.535156 4.765625 116.535156 5.203125 L 116.535156 25.980469 C 116.535156 27.484375 115.253906 28.765625 113.75 28.765625 L 105.460938 28.765625 L 105.460938 30.039062 L 115.019531 30.039062 C 116.523438 30.039062 117.804688 28.761719 117.804688 27.253906 L 117.804688 6.476562 C 117.804688 5.382812 117.152344 4.445312 116.238281 3.992188 "/>
</g>
<g clip-path="url(#clip7)" clip-rule="nonzero">
<path style=" stroke:none;fill-rule:nonzero;fill:rgb(38.822937%,39.215088%,39.99939%);fill-opacity:1;" d="M 129.105469 3.691406 L 129.105469 28.765625 L 125.863281 28.765625 L 125.863281 30.039062 L 130.378906 30.039062 L 130.378906 3.691406 Z M 129.105469 3.691406 "/>
</g>
<g clip-path="url(#clip8)" clip-rule="nonzero">
<path style=" stroke:none;fill-rule:nonzero;fill:rgb(38.822937%,39.215088%,39.99939%);fill-opacity:1;" d="M 149.207031 3.691406 L 149.207031 28.765625 L 145.597656 28.765625 L 145.960938 30.039062 L 150.476562 30.039062 L 150.476562 3.691406 Z M 149.207031 3.691406 "/>
</g>
<g clip-path="url(#clip9)" clip-rule="nonzero">
<path style=" stroke:none;fill-rule:nonzero;fill:rgb(38.822937%,39.215088%,39.99939%);fill-opacity:1;" d="M 141.375 17.25 L 141.375 28.769531 L 138.132812 28.769531 L 138.132812 30.039062 L 142.648438 30.039062 L 142.648438 21.675781 Z M 141.375 17.25 "/>
</g>
<path style=" stroke:none;fill-rule:nonzero;fill:rgb(38.822937%,39.215088%,39.99939%);fill-opacity:1;" d="M 161.09375 19.085938 L 164.828125 19.085938 L 164.828125 17.816406 L 159.820312 17.816406 C 159.378906 17.816406 158.96875 17.707031 158.597656 17.523438 C 159.050781 18.445312 159.992188 19.085938 161.09375 19.085938 "/>
<path style=" stroke:none;fill-rule:nonzero;fill:rgb(38.822937%,39.215088%,39.99939%);fill-opacity:1;" d="M 162.824219 20.78125 L 161.554688 21.078125 L 161.554688 24.210938 L 162.824219 24.210938 Z M 162.824219 20.78125 "/>
<path style=" stroke:none;fill-rule:nonzero;fill:rgb(38.822937%,39.215088%,39.99939%);fill-opacity:1;" d="M 169.085938 3.992188 C 169.269531 4.359375 169.382812 4.765625 169.382812 5.203125 L 169.382812 10.550781 L 166.101562 11.308594 L 166.101562 12.875 L 170.652344 11.824219 L 170.652344 6.476562 C 170.652344 5.382812 170 4.445312 169.085938 3.992188 "/>
<g clip-path="url(#clip10)" clip-rule="nonzero">
<path style=" stroke:none;fill-rule:nonzero;fill:rgb(38.822937%,39.215088%,39.99939%);fill-opacity:1;" d="M 169.085938 14.871094 C 169.269531 15.238281 169.382812 15.644531 169.382812 16.082031 L 169.382812 25.980469 C 169.382812 27.484375 168.101562 28.765625 166.597656 28.765625 L 159.820312 28.765625 C 159.382812 28.765625 158.976562 28.652344 158.605469 28.472656 C 159.0625 29.386719 159.996094 30.039062 161.09375 30.039062 L 167.867188 30.039062 C 169.375 30.039062 170.652344 28.761719 170.652344 27.253906 L 170.652344 17.355469 C 170.652344 16.257812 170.003906 15.324219 169.085938 14.871094 "/>
</g>
<path style=" stroke:none;fill-rule:nonzero;fill:rgb(38.822937%,39.215088%,39.99939%);fill-opacity:1;" d="M 161.550781 6.9375 L 161.550781 13.296875 L 162.824219 13.296875 L 162.824219 8.210938 L 164.828125 8.210938 L 164.828125 6.9375 Z M 161.550781 6.9375 "/>
<g clip-path="url(#clip11)" clip-rule="nonzero">
<path style=" stroke:none;fill-rule:nonzero;fill:rgb(38.822937%,39.215088%,39.99939%);fill-opacity:1;" d="M 182.144531 17.8125 L 181.730469 17.8125 L 181.730469 28.765625 L 178.484375 28.765625 L 178.484375 30.039062 L 183 30.039062 L 183 20.550781 Z M 182.144531 17.8125 "/>
</g>
<g clip-path="url(#clip12)" clip-rule="nonzero">
<path style=" stroke:none;fill-rule:nonzero;fill:rgb(38.822937%,39.215088%,39.99939%);fill-opacity:1;" d="M 191.394531 3.691406 L 189.710938 3.691406 L 185.90625 15.554688 L 190.121094 28.765625 L 186.453125 28.765625 L 186.800781 29.890625 L 186.839844 30.039062 L 191.394531 30.039062 L 187.179688 16.828125 Z M 191.394531 3.691406 "/>
</g>
<g clip-path="url(#clip13)" clip-rule="nonzero">
<path style=" stroke:none;fill-rule:nonzero;fill:rgb(38.822937%,39.215088%,39.99939%);fill-opacity:1;" d="M 202.015625 3.691406 L 202.015625 28.765625 L 198.773438 28.765625 L 198.773438 30.039062 L 203.289062 30.039062 L 203.289062 3.691406 Z M 202.015625 3.691406 "/>
</g>
<g clip-path="url(#clip14)" clip-rule="nonzero">
<path style=" stroke:none;fill-rule:nonzero;fill:rgb(38.822937%,39.215088%,39.99939%);fill-opacity:1;" d="M 221.046875 19.089844 L 224.539062 15.59375 L 225.8125 16.867188 L 222.320312 20.359375 Z M 221.046875 19.089844 "/>
</g>
<path style=" stroke:none;fill-rule:nonzero;fill:rgb(38.822937%,39.215088%,39.99939%);fill-opacity:1;" d="M 5.914062 19.085938 L 9.410156 15.59375 L 10.683594 16.867188 L 7.1875 20.359375 Z M 5.914062 19.085938 "/>
<path style=" stroke:none;fill-rule:nonzero;fill:rgb(100%,100%,100%);fill-opacity:1;" d="M 29.460938 15.394531 L 26.183594 15.394531 L 26.183594 21.792969 L 29.460938 21.792969 Z M 29.460938 4.515625 L 26.183594 4.515625 L 26.183594 10.878906 L 29.460938 10.878906 Z M 34.011719 10.539062 C 34.011719 11.40625 33.636719 12.160156 32.996094 12.6875 C 33.5625 13.289062 34.011719 13.964844 34.011719 14.941406 L 34.011719 23.5625 C 34.011719 25.066406 32.730469 26.347656 31.226562 26.347656 L 21.667969 26.347656 L 21.667969 0 L 31.226562 0 C 32.730469 0 34.011719 1.242188 34.011719 2.785156 Z M 34.011719 10.539062 "/>
<path style=" stroke:none;fill-rule:nonzero;fill:rgb(100%,100%,100%);fill-opacity:1;" d="M 49.632812 4.515625 L 46.359375 4.515625 L 46.359375 21.792969 L 49.632812 21.792969 Z M 51.402344 0 C 52.90625 0 54.1875 1.242188 54.1875 2.785156 L 54.1875 23.5625 C 54.1875 25.066406 52.90625 26.347656 51.402344 26.347656 L 44.628906 26.347656 C 43.085938 26.347656 41.84375 25.066406 41.84375 23.5625 L 41.84375 2.785156 C 41.84375 1.242188 43.085938 0 44.628906 0 Z M 51.402344 0 "/>
<path style=" stroke:none;fill-rule:nonzero;fill:rgb(100%,100%,100%);fill-opacity:1;" d="M 69.808594 4.515625 L 66.535156 4.515625 L 66.535156 10.878906 L 69.808594 10.878906 Z M 70.109375 26.347656 L 68.265625 15.394531 L 66.535156 15.394531 L 66.535156 26.347656 L 62.019531 26.347656 L 62.019531 0 L 71.578125 0 C 73.085938 0 74.328125 1.242188 74.328125 2.785156 L 74.328125 12.648438 C 74.328125 13.703125 73.722656 14.679688 72.746094 15.128906 L 74.628906 26.347656 Z M 70.109375 26.347656 "/>
<path style=" stroke:none;fill-rule:nonzero;fill:rgb(100%,100%,100%);fill-opacity:1;" d="M 89.382812 4.515625 L 86.109375 4.515625 L 86.109375 21.792969 L 89.382812 21.792969 Z M 91.152344 0 C 92.65625 0 93.9375 1.242188 93.9375 2.785156 L 93.9375 23.5625 C 93.9375 25.066406 92.65625 26.347656 91.152344 26.347656 L 84.378906 26.347656 C 82.835938 26.347656 81.59375 25.066406 81.59375 23.5625 L 81.59375 2.785156 C 81.59375 1.242188 82.835938 0 84.378906 0 Z M 91.152344 0 "/>
<path style=" stroke:none;fill-rule:nonzero;fill:rgb(100%,100%,100%);fill-opacity:1;" d="M 109.558594 4.515625 L 106.285156 4.515625 L 106.285156 21.792969 L 109.558594 21.792969 Z M 111.328125 0 C 112.835938 0 114.113281 1.242188 114.113281 2.785156 L 114.113281 23.5625 C 114.113281 25.066406 112.835938 26.347656 111.328125 26.347656 L 101.769531 26.347656 L 101.769531 0 Z M 111.328125 0 "/>
<path style=" stroke:none;fill-rule:nonzero;fill:rgb(100%,100%,100%);fill-opacity:1;" d="M 122.171875 0 L 126.6875 0 L 126.6875 26.347656 L 122.171875 26.347656 Z M 122.171875 0 "/>
<path style=" stroke:none;fill-rule:nonzero;fill:rgb(100%,100%,100%);fill-opacity:1;" d="M 146.785156 0 L 146.785156 26.347656 L 142.269531 26.347656 L 138.957031 14.828125 L 138.957031 26.347656 L 134.4375 26.347656 L 134.4375 0 L 138.917969 0 L 142.230469 10.804688 L 142.230469 0 Z M 146.785156 0 "/>
<path style=" stroke:none;fill-rule:nonzero;fill:rgb(100%,100%,100%);fill-opacity:1;" d="M 164.175781 10.878906 C 165.679688 10.878906 166.960938 12.117188 166.960938 13.660156 L 166.960938 23.5625 C 166.960938 25.066406 165.679688 26.347656 164.175781 26.347656 L 157.402344 26.347656 C 155.855469 26.347656 154.617188 25.066406 154.617188 23.5625 L 154.617188 18.140625 L 159.132812 17.085938 L 159.132812 21.792969 L 162.40625 21.792969 L 162.40625 15.394531 L 157.402344 15.394531 C 155.855469 15.394531 154.617188 14.152344 154.617188 12.609375 L 154.617188 2.785156 C 154.617188 1.242188 155.855469 0 157.402344 0 L 164.175781 0 C 165.679688 0 166.960938 1.242188 166.960938 2.785156 L 166.960938 8.128906 L 162.40625 9.183594 L 162.40625 4.515625 L 159.128906 4.515625 L 159.128906 10.878906 Z M 164.175781 10.878906 "/>
<path style=" stroke:none;fill-rule:nonzero;fill:rgb(100%,100%,100%);fill-opacity:1;" d="M 183.484375 13.136719 L 187.703125 26.347656 L 183.148438 26.347656 L 183.109375 26.195312 L 179.722656 15.394531 L 179.304688 15.394531 L 179.304688 26.347656 L 174.792969 26.347656 L 174.792969 0 L 179.304688 0 L 179.304688 10.875 L 179.644531 10.875 L 183.109375 0 L 187.703125 0 Z M 183.484375 13.136719 "/>
<path style=" stroke:none;fill-rule:nonzero;fill:rgb(100%,100%,100%);fill-opacity:1;" d="M 195.082031 0 L 199.597656 0 L 199.597656 26.347656 L 195.082031 26.347656 Z M 195.082031 0 "/>
</g>
</svg>
